<svg xmlns="http://www.w3.org/2000/svg" viewBox="-4 -15.20 391.68 88.00" width="235" role="img" aria-label="Echora">
  <title>Echora</title>
  <g transform="translate(0 -11.20) scale(3.3333)" fill="none" stroke="#a8cefa" stroke-width="2" stroke-linecap="round" stroke-linejoin="round">
    <path d="M2 10v3"/><path d="M6 6v11"/><path d="M10 3v18"/><path d="M14 8v7"/><path d="M18 5v13"/><path d="M22 10v3"/>
  </g>
  <path fill="#ffffff" d="M125.6 57.6V0.0H163.2V10.160000000000004H136.48V22.480000000000004H158.4V32.64H136.48V47.44H163.2V57.6Z M189.83999999999997 58.800000000000004Q183.12 58.800000000000004 178.32 55.800000000000004Q173.51999999999998 52.800000000000004 170.95999999999998 47.64Q168.39999999999998 42.480000000000004 168.39999999999998 36.0Q168.39999999999998 29.44 171.06 24.28Q173.72 19.119999999999997 178.56 16.16Q183.39999999999998 13.200000000000003 190.0 13.200000000000003Q197.64 13.200000000000003 202.82 17.060000000000002Q208.0 20.92 209.44 27.6L198.56 30.48Q197.6 27.12 195.21999999999997 25.240000000000002Q192.83999999999997 23.36 189.83999999999997 23.36Q186.39999999999998 23.36 184.2 25.02Q182.0 26.68 180.95999999999998 29.540000000000003Q179.92 32.400000000000006 179.92 36.0Q179.92 41.64 182.42 45.14Q184.92 48.64 189.83999999999997 48.64Q193.51999999999998 48.64 195.44 46.96Q197.35999999999999 45.28 198.32 42.160000000000004L209.44 44.480000000000004Q207.6 51.36 202.48 55.08Q197.35999999999999 58.800000000000004 189.83999999999997 58.800000000000004Z M244.87999999999997 57.6V37.2Q244.87999999999997 35.72 244.71999999999997 33.42Q244.55999999999997 31.12 243.71999999999997 28.8Q242.87999999999997 26.48 240.97999999999996 24.92Q239.07999999999998 23.36 235.59999999999997 23.36Q234.2 23.36 232.59999999999997 23.8Q230.99999999999997 24.240000000000002 229.59999999999997 25.5Q228.2 26.76 227.29999999999998 29.200000000000003Q226.39999999999998 31.64 226.39999999999998 35.68L220.15999999999997 32.72Q220.15999999999997 27.6 222.23999999999995 23.12Q224.31999999999996 18.64 228.49999999999997 15.879999999999999Q232.67999999999998 13.119999999999997 239.03999999999996 13.119999999999997Q244.11999999999998 13.119999999999997 247.32 14.84Q250.51999999999998 16.560000000000002 252.29999999999998 19.200000000000003Q254.07999999999998 21.840000000000003 254.83999999999997 24.700000000000003Q255.59999999999997 27.560000000000002 255.75999999999996 29.92Q255.91999999999996 32.28 255.91999999999996 33.36V57.6ZM215.35999999999999 57.6V0.0H225.03999999999996V29.6H226.39999999999998V57.6Z M283.76 58.800000000000004Q277.23999999999995 58.800000000000004 272.31999999999994 55.88Q267.4 52.96 264.65999999999997 47.82Q261.91999999999996 42.68 261.91999999999996 36.0Q261.91999999999996 29.240000000000002 264.71999999999997 24.1Q267.52 18.96 272.43999999999994 16.080000000000002Q277.35999999999996 13.200000000000003 283.76 13.200000000000003Q290.28 13.200000000000003 295.21999999999997 16.12Q300.15999999999997 19.04 302.91999999999996 24.18Q305.67999999999995 29.32 305.67999999999995 36.0Q305.67999999999995 42.72 302.9 47.86Q300.11999999999995 53.0 295.17999999999995 55.900000000000006Q290.23999999999995 58.800000000000004 283.76 58.800000000000004ZM283.76 48.64Q289.0 48.64 291.58 45.1Q294.15999999999997 41.56 294.15999999999997 36.0Q294.15999999999997 30.240000000000002 291.53999999999996 26.8Q288.91999999999996 23.36 283.76 23.36Q280.2 23.36 277.91999999999996 24.96Q275.64 26.560000000000002 274.53999999999996 29.400000000000002Q273.44 32.24 273.44 36.0Q273.44 41.8 276.05999999999995 45.22Q278.67999999999995 48.64 283.76 48.64Z M312.48 57.6V14.399999999999999H322.08V24.96L321.04 23.6Q321.88 21.36 323.28 19.52Q324.68 17.68 326.71999999999997 16.480000000000004Q328.28 15.520000000000003 330.12 14.98Q331.96 14.439999999999998 333.91999999999996 14.3Q335.88 14.160000000000004 337.84 14.399999999999999V24.560000000000002Q336.04 24.0 333.65999999999997 24.18Q331.28 24.36 329.36 25.28Q327.44 26.16 326.12 27.62Q324.8 29.080000000000002 324.12 31.060000000000002Q323.44 33.04 323.44 35.519999999999996V57.6Z M354.64000000000004 58.800000000000004Q350.0 58.800000000000004 346.78 57.02Q343.56 55.24 341.9 52.260000000000005Q340.24 49.28 340.24 45.68Q340.24 42.68 341.16 40.2Q342.08000000000004 37.72 344.14000000000004 35.82Q346.20000000000005 33.92 349.68 32.64Q352.08000000000004 31.76 355.40000000000003 31.080000000000002Q358.72 30.400000000000002 362.92 29.78Q367.12 29.16 372.16 28.400000000000002L368.24 30.560000000000002Q368.24 26.720000000000002 366.4 24.92Q364.56 23.119999999999997 360.24 23.119999999999997Q357.84000000000003 23.119999999999997 355.24 24.279999999999998Q352.64000000000004 25.439999999999998 351.6 28.400000000000002L341.76000000000005 25.28Q343.40000000000003 19.92 347.92 16.560000000000002Q352.44 13.200000000000003 360.24 13.200000000000003Q365.96000000000004 13.200000000000003 370.40000000000003 14.96Q374.84000000000003 16.72 377.12 21.04Q378.40000000000003 23.439999999999998 378.64 25.84Q378.88 28.240000000000002 378.88 31.2V57.6H369.36V48.72L370.72 50.56Q367.56 54.92 363.9 56.86Q360.24 58.800000000000004 354.64000000000004 58.800000000000004ZM356.96000000000004 50.24Q359.96000000000004 50.24 362.02000000000004 49.18000000000001Q364.08000000000004 48.120000000000005 365.30000000000007 46.760000000000005Q366.52000000000004 45.4 366.96000000000004 44.480000000000004Q367.8 42.72 367.94000000000005 40.38Q368.08000000000004 38.040000000000006 368.08000000000004 36.480000000000004L371.28000000000003 37.28Q366.44 38.08 363.44 38.62Q360.44 39.16 358.6 39.6Q356.76 40.040000000000006 355.36 40.56Q353.76 41.2 352.78 41.94Q351.8 42.68 351.34000000000003 43.56Q350.88 44.44 350.88 45.52Q350.88 47.0 351.62 48.06Q352.36 49.120000000000005 353.72 49.68000000000001Q355.08000000000004 50.24 356.96000000000004 50.24Z"/>
</svg>
